<svg width="571" height="573" viewBox="0 0 571 573" fill="none" xmlns="http://www.w3.org/2000/svg">
<rect width="571" height="573" fill="white"/>
<path d="M286.816 210.745C286.295 212.1 285.958 213.49 285.812 214.905C285.648 216.468 285.691 218.039 285.989 219.596C286.168 220.528 286.394 221.457 286.735 222.365C288.33 226.564 291.502 229.903 295.68 231.774C297.953 232.793 300.368 233.306 302.849 233.306C305.934 233.306 308.885 232.464 311.462 231.001C312.856 230.211 314.135 229.24 315.262 228.093C316.269 227.071 317.139 225.906 317.861 224.639C318.068 224.274 318.304 223.925 318.483 223.538C318.483 223.538 352.793 150.846 352.867 150.699C352.938 150.542 353.902 147.76 354.106 146.641C355.453 139.317 351.681 131.737 344.421 128.482C342.154 127.462 339.739 126.949 337.258 126.949C332.03 126.949 327.168 129.302 323.94 133.139C323.033 134.222 322.234 135.402 321.624 136.708C321.627 136.696 321.63 136.684 321.636 136.675L321.618 136.711C321.614 136.714 321.611 136.723 321.605 136.729L287.24 209.554C287.06 209.943 286.964 210.347 286.816 210.745Z" fill="#999999"/>
<path d="M302.292 130.702C303.02 131.414 303.494 132.343 303.841 133.36C304.655 135.77 304.519 138.856 303.844 141.984C303.497 143.58 303.032 145.163 302.475 146.662C302.264 147.239 302.05 147.821 301.812 148.364C301.462 149.193 301 150.159 300.468 151.178C295.81 160.152 283.824 175.235 255.675 176.17C255.659 176.17 255.637 176.173 255.622 176.173L243.893 199.961C251.221 201.648 264.263 205.635 275.567 214.229L313.801 133.209C314.426 131.887 314.792 130.527 315.043 129.154C316.381 121.821 312.618 114.238 305.358 110.989C303.085 109.975 300.669 109.457 298.195 109.457C292.967 109.457 288.107 111.806 284.883 115.647C283.967 116.729 283.167 117.912 282.548 119.218C282.554 119.206 282.554 119.2 282.567 119.188L282.548 119.218L282.539 119.239L277.707 129.48H301.035L302.292 130.702Z" fill="#999999"/>
<path d="M257.028 129.477H261.215H268.239L274.703 115.755C275.322 114.434 275.691 113.07 275.939 111.701C277.28 104.374 273.517 96.7902 266.257 93.5384C263.978 92.5249 261.568 92 259.091 92C253.863 92 249 94.3559 245.776 98.1929C244.869 99.2759 244.067 100.458 243.45 101.768C243.45 101.774 243.438 101.78 243.438 101.786L230.39 129.477H244.68H257.028Z" fill="#999999"/>
<path d="M274.733 115.712L274.742 115.692L274.733 115.712L274.719 115.751L274.733 115.712Z" fill="#999999"/>
<path d="M348.978 178.996H348.977V178.998L348.978 178.996Z" fill="#999999"/>
<path d="M316.145 228.503L316.154 228.492L316.148 228.494L316.145 228.503Z" fill="#999999"/>
<path d="M316.161 228.47L316.155 228.481V228.484L316.161 228.47Z" fill="#999999"/>
<path d="M378.802 192.378C378.802 190.495 377.724 186.601 377.681 186.565C375.25 180.185 368.994 175.621 361.604 175.621C360.052 175.621 358.572 175.886 357.141 176.264C354.654 176.915 352.409 178.095 350.498 179.675C348.256 181.536 346.528 183.913 345.496 186.658C345.484 186.695 345.478 186.737 345.459 186.773L323.968 231.991H323.975C323.34 233.339 323.021 234.745 322.946 236.145C322.922 236.645 322.946 237.14 322.987 237.629C323.315 241.565 325.737 245.224 329.676 246.989C331.547 247.831 333.563 248.081 335.53 247.885C338.094 247.625 340.569 246.582 342.473 244.88C343.387 244.063 344.143 243.07 344.737 241.978L355.902 218.489L363.71 221.997L364.484 220.359L352.895 244.923L352.877 244.959C352.685 245.366 352.452 245.74 352.223 246.123C351.743 246.962 351.21 247.776 350.619 248.533C349.408 250.099 347.955 251.45 346.348 252.585C343.232 254.796 339.494 256.153 335.527 256.346C335.183 256.367 334.852 256.409 334.514 256.409H334.511C331.59 256.409 328.753 255.8 326.077 254.606C322.076 252.808 319.004 249.882 316.984 246.401C316.012 244.72 315.321 242.911 314.885 241.028C314.72 240.325 314.587 239.623 314.504 238.902C313.172 239.565 311.803 240.144 310.363 240.576C307.96 241.294 305.429 241.686 302.852 241.686C302.852 241.686 302.852 241.686 302.849 241.686C299.861 241.686 297.863 241.167 295.073 240.187C296.658 245.242 297.646 250.829 297.646 257.17V288.922H289.046V257.17C289.046 249.565 286.605 243.125 284.097 237.629C272.346 211.852 238.789 207.394 237.077 207.186L231.149 206.462L250.183 167.844H252.893C253.612 167.844 254.225 167.757 254.913 167.739C256.579 167.691 258.239 167.639 259.769 167.485C276.174 165.829 285.174 158.382 289.931 151.996C290.343 151.444 290.703 150.889 291.065 150.343C291.907 149.058 292.61 147.803 293.202 146.578C293.88 145.181 294.407 143.845 294.803 142.617C295.407 140.723 295.726 139.076 295.819 137.857H224.654C216.137 137.857 208.692 142.255 204.523 148.837C203.551 150.376 202.752 152.023 202.163 153.769L179.808 200.465L178.659 202.866C177.557 205.527 176.934 208.429 176.934 211.478C176.934 215.647 178.09 219.548 180.075 222.923L182.494 226.302L237.43 297.163V393.643H340.659V393.652H349.259L349.265 322.435L376.585 268.267C376.969 267.595 377.337 266.922 377.628 266.195C378.347 264.403 378.765 262.47 378.799 260.44C378.805 260.337 378.802 192.378 378.802 192.378Z" fill="#999999"/>
<path d="M162.515 297.044V272.921L102.074 216.995L162.515 161.068V136.941L76 216.995L162.515 297.044Z" fill="black"/>
<path d="M398.99 297.044V272.921L459.431 216.995L398.99 161.068V136.941L485.505 216.995L398.99 297.044Z" fill="black"/>
<path d="M64.883 446.082V483H74.396V446.082L83.72 446.145V437.577H55.748V446.145L64.883 446.082ZM111.726 483V474.684H96.1655V464.037H111.159V455.91H96.2285V445.893H111.663V437.577H86.7155V483H111.726ZM149.927 439.089L148.982 438.648C145.517 437.073 143.06 436.758 139.721 436.758C126.113 436.758 115.718 447.027 115.718 460.446C115.718 473.613 126.05 483.945 139.154 483.945C141.422 483.945 143.501 483.693 145.454 483.063C145.58 483 145.643 483 145.706 483L148.919 481.866L150.053 481.425V470.715C149.171 471.534 148.73 471.912 147.974 472.353C145.454 473.991 142.556 474.873 139.532 474.873C131.657 474.873 125.609 468.636 125.609 460.32C125.609 452.13 131.531 445.956 139.343 445.956C142.43 445.956 145.454 446.838 148.1 448.665C148.793 449.106 149.171 449.484 150.116 450.366V439.152L149.927 439.089ZM163.78 483V463.974H181.672V483H191.185V437.577H181.609V456.036H163.78V437.577H154.33V483H163.78ZM234.056 483C243.38 483 249.113 477.96 249.113 469.77C249.113 463.785 245.9 460.005 239.726 458.556C243.569 456.729 245.522 453.579 245.522 449.232C245.522 441.924 240.419 437.577 231.914 437.577H216.038V483H234.056ZM231.284 463.344C232.67 463.344 233.804 463.407 234.56 463.533C237.395 463.911 239.285 466.179 239.285 469.203C239.285 473.172 236.387 475.503 231.347 475.503H225.425V463.344H231.284ZM230.276 445.2C233.615 445.2 235.694 447.216 235.694 450.429C235.694 453.768 233.804 455.847 230.717 455.847H225.425V445.2H230.276ZM258.811 461.265V483H268.639V461.265L283.318 437.577H272.104L265.993 447.909C265.426 448.854 265.048 449.673 264.67 450.618C264.166 452.004 263.977 452.886 263.725 455.091C263.473 452.886 263.284 452.004 262.78 450.618C262.402 449.673 262.024 448.854 261.457 447.909L255.346 437.577H244.132L258.811 461.265ZM334.62 439.089L333.675 438.648C330.21 437.073 327.753 436.758 324.414 436.758C310.806 436.758 300.411 447.027 300.411 460.446C300.411 473.613 310.743 483.945 323.847 483.945C326.115 483.945 328.194 483.693 330.147 483.063C330.273 483 330.336 483 330.399 483L333.612 481.866L334.746 481.425V470.715C333.864 471.534 333.423 471.912 332.667 472.353C330.147 473.991 327.249 474.873 324.225 474.873C316.35 474.873 310.302 468.636 310.302 460.32C310.302 452.13 316.224 445.956 324.036 445.956C327.123 445.956 330.147 446.838 332.793 448.665C333.486 449.106 333.864 449.484 334.809 450.366V439.152L334.62 439.089ZM348.473 483V463.974H366.365V483H375.878V437.577H366.302V456.036H348.473V437.577H339.023V483H348.473ZM380.884 460.32C380.884 473.739 391.279 483.945 404.887 483.945C418.495 483.945 428.827 473.739 428.827 460.32C428.827 446.901 418.495 436.695 404.887 436.695C391.216 436.695 380.884 446.901 380.884 460.32ZM404.887 445.767C412.762 445.767 418.999 452.13 418.999 460.32C418.999 468.51 412.762 474.936 404.887 474.936C396.949 474.936 390.775 468.573 390.712 460.32C390.712 452.13 396.886 445.767 404.887 445.767ZM443.344 483V437.577H433.831V483H443.344ZM482.461 439.089L481.516 438.648C478.051 437.073 475.594 436.758 472.255 436.758C458.647 436.758 448.252 447.027 448.252 460.446C448.252 473.613 458.584 483.945 471.688 483.945C473.956 483.945 476.035 483.693 477.988 483.063C478.114 483 478.177 483 478.24 483L481.453 481.866L482.587 481.425V470.715C481.705 471.534 481.264 471.912 480.508 472.353C477.988 473.991 475.09 474.873 472.066 474.873C464.191 474.873 458.143 468.636 458.143 460.32C458.143 452.13 464.065 445.956 471.877 445.956C474.964 445.956 477.988 446.838 480.634 448.665C481.327 449.106 481.705 449.484 482.65 450.366V439.152L482.461 439.089ZM511.875 483V474.684H496.314V464.037H511.308V455.91H496.377V445.893H511.812V437.577H486.864V483H511.875Z" fill="#890000"/>
</svg>
