<svg width="60" height="34" viewBox="0 0 60 34" fill="none" xmlns="http://www.w3.org/2000/svg">
<path d="M31.2814 16.4292C31.2062 16.6109 31.1574 16.7974 31.1364 16.9872C31.1126 17.1968 31.1189 17.4076 31.1619 17.6164C31.1878 17.7415 31.2205 17.8661 31.2698 17.9879C31.5003 18.5512 31.9587 18.9992 32.5626 19.25C32.8912 19.3868 33.2403 19.4556 33.5989 19.4556C34.0448 19.4556 34.4714 19.3427 34.8438 19.1464C35.0453 19.0404 35.2302 18.9101 35.3931 18.7564C35.5386 18.6192 35.6644 18.463 35.7687 18.293C35.7987 18.2441 35.8327 18.1971 35.8587 18.1453C35.8587 18.1453 40.8178 8.39399 40.8285 8.37416C40.8388 8.35312 40.978 7.98003 41.0076 7.8299C41.2023 6.8474 40.6571 5.83051 39.6078 5.39389C39.2801 5.25711 38.9309 5.18832 38.5723 5.18832C37.8167 5.18832 37.1139 5.50395 36.6474 6.01867C36.5163 6.16394 36.4008 6.32216 36.3126 6.49738C36.313 6.49576 36.3135 6.49414 36.3144 6.49293L36.3117 6.49778C36.3112 6.49819 36.3108 6.4994 36.3099 6.50021L31.3427 16.2694C31.3168 16.3216 31.3029 16.3758 31.2814 16.4292Z" fill="#999999"/>
<path d="M33.5183 5.69168C33.6235 5.78718 33.692 5.91181 33.7421 6.04818C33.8599 6.3715 33.8402 6.78546 33.7426 7.20509C33.6924 7.41915 33.6253 7.63159 33.5447 7.8327C33.5143 7.90999 33.4834 7.98809 33.4489 8.06093C33.3983 8.17221 33.3316 8.3017 33.2546 8.43847C32.5814 9.64232 30.8489 11.6656 26.7802 11.791C26.778 11.791 26.7748 11.7914 26.7726 11.7914L25.0773 14.9825C26.1365 15.2087 28.0216 15.7437 29.6555 16.8965L35.1818 6.02795C35.2722 5.85071 35.325 5.66821 35.3613 5.48409C35.5547 4.50038 35.0108 3.48308 33.9615 3.04727C33.6329 2.91131 33.2837 2.84171 32.9261 2.84171C32.1704 2.84171 31.468 3.15693 31.002 3.67205C30.8695 3.81733 30.754 3.97595 30.6645 4.15116C30.6654 4.14955 30.6654 4.14874 30.6672 4.14712L30.6645 4.15116L30.6632 4.154L29.9648 5.5278H33.3366L33.5183 5.69168Z" fill="#999999"/>
<path d="M26.9758 5.52742H27.581H28.5963L29.5305 3.68665C29.62 3.50941 29.6733 3.32651 29.7091 3.14279C29.903 2.15989 29.3591 1.14259 28.3098 0.706373C27.9803 0.57041 27.632 0.5 27.2739 0.5C26.5183 0.5 25.8154 0.816035 25.3494 1.33075C25.2183 1.47603 25.1023 1.63465 25.0132 1.81027C25.0132 1.81108 25.0115 1.81189 25.0115 1.8127L23.1255 5.52742H25.191H26.9758Z" fill="#999999"/>
<path d="M29.535 3.68092L29.5364 3.67813L29.535 3.68092L29.5328 3.68609L29.535 3.68092Z" fill="#999999"/>
<path d="M40.2673 12.1702H40.2662V12.1713L40.2673 12.1702Z" fill="#999999"/>
<path d="M35.5206 18.8119L35.5224 18.8098L35.5212 18.8103L35.5206 18.8119Z" fill="#999999"/>
<path d="M35.5232 18.8069L35.522 18.8088V18.8092L35.5232 18.8069Z" fill="#999999"/>
<path d="M44.4151 13.1855C44.4214 13.1903 44.5771 13.7128 44.5771 13.9653C44.5771 13.9653 44.5776 23.0817 44.5767 23.0955C44.5718 23.3678 44.5113 23.6272 44.4075 23.8675C44.3654 23.9651 44.3121 24.0553 44.2566 24.1455L40.3079 31.4119V33.463C40.3079 33.7596 40.0675 34 39.7709 34H24.68C24.3835 34 24.1431 33.7596 24.1431 33.463V28.0217L16.2026 18.516L15.853 18.0628C15.566 17.61 15.399 17.0868 15.399 16.5275C15.399 16.1184 15.489 15.7291 15.6484 15.3722L15.8145 15.0501L19.0456 8.7861C19.1307 8.5518 19.2462 8.33086 19.3868 8.12449C19.9893 7.24154 21.0655 6.65155 22.2965 6.65155H32.5827C32.5693 6.81503 32.5232 7.03597 32.4359 7.29009C32.3786 7.45479 32.3025 7.63405 32.2044 7.8214C32.1189 7.98569 32.0173 8.15403 31.8956 8.32641C31.8432 8.39965 31.7912 8.47411 31.7317 8.54816C31.0441 9.40481 29.7432 10.4039 27.372 10.6261C27.1509 10.6467 26.9109 10.6536 26.6701 10.66C26.5707 10.6625 26.4821 10.6742 26.3782 10.6742H25.9865L23.2352 15.8546L24.092 15.9517C24.3396 15.9796 29.1899 16.5777 30.8883 20.0355C31.2509 20.7727 31.6037 21.6367 31.6037 22.6568V26.9162H32.8468V22.6568C32.8468 21.8062 32.704 21.0568 32.4748 20.3786C32.8782 20.5101 33.1673 20.5797 33.5993 20.5797C33.9718 20.5797 34.3375 20.5271 34.6849 20.4308C34.893 20.373 35.0909 20.2953 35.2834 20.2062C35.2955 20.3029 35.3147 20.3972 35.3385 20.4915C35.4016 20.744 35.5014 20.9868 35.642 21.2122C35.9338 21.6792 36.3779 22.0717 36.9563 22.3129C37.3431 22.4731 37.7536 22.5548 38.1757 22.5548C38.2245 22.5548 38.2724 22.5492 38.3221 22.5463C38.8955 22.5204 39.4358 22.3384 39.8862 22.0417C40.1185 21.8896 40.3285 21.7083 40.5035 21.4983C40.589 21.3967 40.666 21.2875 40.7354 21.175C40.7685 21.1236 40.8021 21.0734 40.8298 21.0188L40.8325 21.0139L42.5076 17.7188L42.3957 17.9386L41.2672 17.4679L39.6534 20.619C39.5674 20.7655 39.4582 20.8986 39.3262 21.0083C39.0509 21.2365 38.6932 21.3765 38.3225 21.4113C38.0383 21.4376 37.7468 21.404 37.4765 21.2911C36.907 21.0544 36.557 20.5635 36.5095 20.0355C36.5037 19.9699 36.5001 19.9036 36.5037 19.8364C36.5144 19.6486 36.5597 19.4601 36.6514 19.2792L39.7577 13.2134C39.7604 13.2086 39.7613 13.2029 39.7631 13.198C39.9121 12.8298 40.1619 12.5109 40.486 12.2613C40.7622 12.0492 41.0868 11.891 41.4463 11.8036C41.6531 11.753 41.867 11.7174 42.0913 11.7174C43.1594 11.7174 44.0637 12.3297 44.4151 13.1855Z" fill="#999999"/>
<path d="M13.3149 28.0058V24.7698L4.57874 17.2675L13.3149 9.76519V6.52866L0.809937 17.2675L13.3149 28.0058Z" fill="black"/>
<path d="M47.4951 28.0058V24.7698L56.2312 17.2675L47.4951 9.76519V6.52866L60 17.2675L47.4951 28.0058Z" fill="black"/>
</svg>
